<?xml version="1.0" encoding="UTF-8"?>
<!DOCTYPE svg PUBLIC "-//W3C//DTD SVG 1.1//EN" "http://www.w3.org/Graphics/SVG/1.1/DTD/svg11.dtd">
<!-- Creator: CorelDRAW X6 -->
<svg xmlns="http://www.w3.org/2000/svg" xml:space="preserve" width="8.26772in" height="3.87795in" version="1.1" style="shape-rendering:geometricPrecision; text-rendering:geometricPrecision; image-rendering:optimizeQuality; fill-rule:evenodd; clip-rule:evenodd"
viewBox="0 0 8268 3878"
 xmlns:xlink="http://www.w3.org/1999/xlink">
 <defs>
  <style type="text/css">
   <![CDATA[
    .str0 {stroke:#373435;stroke-width:41.6654}
    .fil0 {fill:none}
    .fil2 {fill:#ED3237}
    .fil1 {fill:#373435;fill-rule:nonzero}
   ]]>
  </style>
 </defs>
 <g id="Layer_x0020_1">
  <metadata id="CorelCorpID_0Corel-Layer"/>
  <rect class="fil0 str0" x="358" y="681" width="3582" height="2369"/>
  <ellipse class="fil0 str0" cx="1066" cy="1345" rx="361" ry="376"/>
  <ellipse class="fil0 str0" cx="2073" cy="1349" rx="361" ry="376"/>
  <ellipse class="fil0 str0" cx="3105" cy="1349" rx="361" ry="376"/>
  <ellipse class="fil0 str0" cx="1066" cy="2326" rx="361" ry="376"/>
  <ellipse class="fil0 str0" cx="2073" cy="2329" rx="361" ry="376"/>
  <ellipse class="fil0 str0" cx="3105" cy="2329" rx="361" ry="376"/>
  <path class="fil1" d="M954 1465l92 -239 35 0 97 239 -36 0 -28 -72 -101 0 -26 72 -34 0zm69 -98l81 0 -25 -66c-8,-20 -13,-37 -17,-50 -3,16 -8,31 -13,46l-26 70z"/>
  <path class="fil1" d="M1987 1469l0 -239 90 0c18,0 33,2 44,7 11,5 20,12 26,22 6,10 9,21 9,32 0,10 -3,20 -8,29 -6,9 -14,16 -25,22 14,4 26,11 33,22 8,10 12,22 12,36 0,11 -2,22 -7,31 -5,10 -11,17 -18,22 -7,5 -16,9 -26,12 -11,3 -23,4 -39,4l-91 0zm32 -138l52 0c14,0 24,-1 30,-3 8,-2 14,-6 18,-12 4,-6 6,-13 6,-21 0,-8 -2,-15 -6,-21 -4,-6 -9,-10 -16,-12 -7,-2 -19,-3 -36,-3l-48 0 0 72zm0 110l59 0c10,0 17,0 22,-1 7,-1 13,-3 18,-7 5,-3 9,-8 12,-13 3,-6 5,-13 5,-20 0,-9 -2,-17 -7,-23 -5,-7 -11,-11 -19,-14 -8,-3 -20,-4 -35,-4l-55 0 0 82z"/>
  <path class="fil1" d="M2993 1469l92 -239 35 0 97 239 -36 0 -28 -72 -101 0 -26 72 -34 0zm69 -98l81 0 -25 -66c-8,-20 -13,-37 -17,-50 -3,16 -8,31 -13,46l-26 70z"/>
  <path class="fil1" d="M3018 2449l0 -239 90 0c18,0 33,2 44,7 11,5 20,12 26,22 6,10 9,21 9,32 0,10 -3,20 -8,29 -6,9 -14,16 -25,22 14,4 26,11 33,22 8,10 12,22 12,36 0,11 -2,22 -7,31 -5,10 -11,17 -18,22 -7,5 -16,9 -26,12 -11,3 -23,4 -39,4l-91 0zm32 -138l52 0c14,0 24,-1 30,-3 8,-2 14,-6 18,-12 4,-6 6,-13 6,-21 0,-8 -2,-15 -6,-21 -4,-6 -9,-10 -16,-12 -7,-2 -19,-3 -36,-3l-48 0 0 72zm0 110l59 0c10,0 17,0 22,-1 7,-1 13,-3 18,-7 5,-3 9,-8 12,-13 3,-6 5,-13 5,-20 0,-9 -2,-17 -7,-23 -5,-7 -11,-11 -19,-14 -8,-3 -20,-4 -35,-4l-55 0 0 82z"/>
  <path class="fil1" d="M1962 2449l92 -239 35 0 97 239 -36 0 -28 -72 -101 0 -26 72 -34 0zm69 -98l81 0 -25 -66c-8,-20 -13,-37 -17,-50 -3,16 -8,31 -13,46l-26 70z"/>
  <path class="fil1" d="M979 2445l0 -239 90 0c18,0 33,2 44,7 11,5 20,12 26,22 6,10 9,21 9,32 0,10 -3,20 -8,29 -6,9 -14,16 -25,22 14,4 26,11 33,22 8,10 12,22 12,36 0,11 -2,22 -7,31 -5,10 -11,17 -18,22 -7,5 -16,9 -26,12 -11,3 -23,4 -39,4l-91 0zm32 -138l52 0c14,0 24,-1 30,-3 8,-2 14,-6 18,-12 4,-6 6,-13 6,-21 0,-8 -2,-15 -6,-21 -4,-6 -9,-10 -16,-12 -7,-2 -19,-3 -36,-3l-48 0 0 72zm0 110l59 0c10,0 17,0 22,-1 7,-1 13,-3 18,-7 5,-3 9,-8 12,-13 3,-6 5,-13 5,-20 0,-9 -2,-17 -7,-23 -5,-7 -11,-11 -19,-14 -8,-3 -20,-4 -35,-4l-55 0 0 82z"/>
  <ellipse class="fil2 str0" cx="4734" cy="1345" rx="361" ry="376"/>
  <ellipse class="fil0 str0" cx="4734" cy="2322" rx="361" ry="376"/>
  <polygon class="fil1" points="5329,1567 5329,1229 5374,1229 5374,1527 5540,1527 5540,1567 "/>
  <path id="1" class="fil1" d="M5749 1536c-15,13 -30,22 -45,28 -14,5 -30,8 -46,8 -27,0 -48,-7 -62,-20 -14,-13 -22,-30 -22,-50 0,-12 3,-23 8,-33 6,-10 13,-18 21,-24 9,-6 19,-11 30,-14 8,-2 21,-4 37,-6 34,-4 58,-9 74,-14 0,-6 0,-9 0,-11 0,-17 -4,-29 -12,-36 -11,-9 -26,-14 -47,-14 -20,0 -34,3 -43,10 -9,7 -16,19 -21,36l-41 -6c4,-17 10,-31 18,-42 9,-11 21,-19 37,-25 16,-6 35,-9 56,-9 21,0 38,2 51,7 13,5 23,11 29,19 6,7 10,17 13,28 1,7 2,20 2,38l0 55c0,38 1,63 3,73 2,10 5,20 10,30l-43 0c-4,-9 -7,-19 -8,-31zm-3 -92c-15,6 -38,11 -68,16 -17,2 -29,5 -36,8 -7,3 -13,8 -16,13 -4,6 -6,12 -6,20 0,11 4,20 13,27 8,7 21,11 37,11 16,0 30,-3 43,-10 12,-7 22,-16 27,-28 4,-9 7,-23 7,-41l0 -15z"/>
  <path id="2" class="fil1" d="M5851 1567l0 -245 37 0 0 35c8,-12 18,-22 31,-29 13,-7 27,-11 44,-11 18,0 33,4 45,11 12,8 20,18 24,32 20,-29 45,-43 76,-43 24,0 43,7 56,20 13,13 20,34 20,62l0 168 -42 0 0 -154c0,-17 -1,-28 -4,-36 -3,-7 -8,-13 -15,-18 -7,-4 -15,-7 -25,-7 -17,0 -32,6 -43,17 -11,11 -17,30 -17,55l0 142 -42 0 0 -159c0,-18 -3,-32 -10,-41 -7,-9 -18,-14 -33,-14 -12,0 -22,3 -32,9 -10,6 -17,15 -22,27 -4,12 -7,29 -7,51l0 127 -42 0z"/>
  <path id="3" class="fil1" d="M6245 1661l0 -339 38 0 0 32c9,-12 19,-22 30,-28 11,-6 25,-9 41,-9 21,0 39,5 55,16 16,11 28,26 36,45 8,20 12,41 12,64 0,25 -4,47 -13,68 -9,20 -22,35 -39,46 -17,11 -35,16 -54,16 -14,0 -26,-3 -37,-9 -11,-6 -20,-13 -27,-22l0 120 -42 0zm38 -215c0,31 6,55 19,70 13,15 28,23 46,23 18,0 34,-8 47,-23 13,-16 20,-40 20,-72 0,-31 -6,-54 -19,-70 -13,-16 -28,-23 -46,-23 -18,0 -33,8 -47,25 -14,17 -20,40 -20,72z"/>
  <path id="4" class="fil1" d="M6667 1567l0 -36c-19,28 -45,42 -78,42 -14,0 -28,-3 -40,-8 -13,-6 -22,-13 -28,-21 -6,-8 -10,-19 -13,-31 -2,-8 -3,-21 -3,-39l0 -152 42 0 0 136c0,22 1,36 3,44 3,11 8,19 17,26 8,6 19,9 31,9 12,0 24,-3 35,-10 11,-6 19,-15 23,-26 4,-11 7,-27 7,-48l0 -131 42 0 0 245 -37 0z"/>
  <polygon id="5" class="fil1" points="6906,1567 6906,1229 6952,1229 7129,1494 7129,1229 7172,1229 7172,1567 7126,1567 6949,1301 6949,1567 "/>
  <path id="6" class="fil1" d="M7240 1661l-5 -38c9,2 17,4 24,4 9,0 17,-2 22,-5 6,-3 10,-7 14,-13 3,-4 7,-14 13,-31 1,-2 2,-6 4,-10l-93 -246 44 0 51 142c7,18 13,37 18,57 5,-19 10,-37 17,-55l52 -143 41 0 -93 249c-10,27 -18,45 -23,55 -7,14 -16,24 -25,30 -10,6 -21,10 -34,10 -8,0 -17,-2 -27,-5z"/>
  <path id="7" class="fil1" d="M7638 1536c-15,13 -30,22 -45,28 -14,5 -30,8 -46,8 -27,0 -48,-7 -62,-20 -14,-13 -22,-30 -22,-50 0,-12 3,-23 8,-33 6,-10 13,-18 21,-24 9,-6 19,-11 30,-14 8,-2 21,-4 37,-6 34,-4 58,-9 74,-14 0,-6 0,-9 0,-11 0,-17 -4,-29 -12,-36 -11,-9 -26,-14 -47,-14 -20,0 -34,3 -43,10 -9,7 -16,19 -21,36l-41 -6c4,-17 10,-31 18,-42 9,-11 21,-19 37,-25 16,-6 35,-9 56,-9 21,0 38,2 51,7 13,5 23,11 29,19 6,7 10,17 13,28 1,7 2,20 2,38l0 55c0,38 1,63 3,73 2,10 5,20 10,30l-43 0c-4,-9 -7,-19 -8,-31zm-3 -92c-15,6 -38,11 -68,16 -17,2 -29,5 -36,8 -7,3 -13,8 -16,13 -4,6 -6,12 -6,20 0,11 4,20 13,27 8,7 21,11 37,11 16,0 30,-3 43,-10 12,-7 22,-16 27,-28 4,-9 7,-23 7,-41l0 -15z"/>
  <polygon id="8" class="fil1" points="7740,1567 7740,1229 7781,1229 7781,1567 "/>
  <path id="9" class="fil1" d="M8006 1536c-15,13 -30,22 -45,28 -14,5 -30,8 -46,8 -27,0 -48,-7 -62,-20 -14,-13 -22,-30 -22,-50 0,-12 3,-23 8,-33 6,-10 13,-18 21,-24 9,-6 19,-11 30,-14 8,-2 21,-4 37,-6 34,-4 58,-9 74,-14 0,-6 0,-9 0,-11 0,-17 -4,-29 -12,-36 -11,-9 -26,-14 -47,-14 -20,0 -34,3 -43,10 -9,7 -16,19 -21,36l-41 -6c4,-17 10,-31 18,-42 9,-11 21,-19 37,-25 16,-6 35,-9 56,-9 21,0 38,2 51,7 13,5 23,11 29,19 6,7 10,17 13,28 1,7 2,20 2,38l0 55c0,38 1,63 3,73 2,10 5,20 10,30l-43 0c-4,-9 -7,-19 -8,-31zm-3 -92c-15,6 -38,11 -68,16 -17,2 -29,5 -36,8 -7,3 -13,8 -16,13 -4,6 -6,12 -6,20 0,11 4,20 13,27 8,7 21,11 37,11 16,0 30,-3 43,-10 12,-7 22,-16 27,-28 4,-9 7,-23 7,-41l0 -15z"/>
  <polygon class="fil1" points="5303,2524 5303,2186 5348,2186 5348,2484 5514,2484 5514,2524 "/>
  <path id="1" class="fil1" d="M5722 2493c-15,13 -30,22 -45,28 -14,5 -30,8 -46,8 -27,0 -48,-7 -62,-20 -14,-13 -22,-30 -22,-50 0,-12 3,-23 8,-33 6,-10 13,-18 21,-24 9,-6 19,-11 30,-14 8,-2 21,-4 37,-6 34,-4 58,-9 74,-14 0,-6 0,-9 0,-11 0,-17 -4,-29 -12,-36 -11,-9 -26,-14 -47,-14 -20,0 -34,3 -43,10 -9,7 -16,19 -21,36l-41 -6c4,-17 10,-31 18,-42 9,-11 21,-19 37,-25 16,-6 35,-9 56,-9 21,0 38,2 51,7 13,5 23,11 29,19 6,7 10,17 13,28 1,7 2,20 2,38l0 55c0,38 1,63 3,73 2,10 5,20 10,30l-43 0c-4,-9 -7,-19 -8,-31zm-3 -92c-15,6 -38,11 -68,16 -17,2 -29,5 -36,8 -7,3 -13,8 -16,13 -4,6 -6,12 -6,20 0,11 4,20 13,27 8,7 21,11 37,11 16,0 30,-3 43,-10 12,-7 22,-16 27,-28 4,-9 7,-23 7,-41l0 -15z"/>
  <path id="2" class="fil1" d="M5825 2524l0 -245 37 0 0 35c8,-12 18,-22 31,-29 13,-7 27,-11 44,-11 18,0 33,4 45,11 12,8 20,18 24,32 20,-29 45,-43 76,-43 24,0 43,7 56,20 13,13 20,34 20,62l0 168 -42 0 0 -154c0,-17 -1,-28 -4,-36 -3,-7 -8,-13 -15,-18 -7,-4 -15,-7 -25,-7 -17,0 -32,6 -43,17 -11,11 -17,30 -17,55l0 142 -42 0 0 -159c0,-18 -3,-32 -10,-41 -7,-9 -18,-14 -33,-14 -12,0 -22,3 -32,9 -10,6 -17,15 -22,27 -4,12 -7,29 -7,51l0 127 -42 0z"/>
  <path id="3" class="fil1" d="M6218 2618l0 -339 38 0 0 32c9,-12 19,-22 30,-28 11,-6 25,-9 41,-9 21,0 39,5 55,16 16,11 28,26 36,45 8,20 12,41 12,64 0,25 -4,47 -13,68 -9,20 -22,35 -39,46 -17,11 -35,16 -54,16 -14,0 -26,-3 -37,-9 -11,-6 -20,-13 -27,-22l0 120 -42 0zm38 -215c0,31 6,55 19,70 13,15 28,23 46,23 18,0 34,-8 47,-23 13,-16 20,-40 20,-72 0,-31 -6,-54 -19,-70 -13,-16 -28,-23 -46,-23 -18,0 -33,8 -47,25 -14,17 -20,40 -20,72z"/>
  <path id="4" class="fil1" d="M6641 2524l0 -36c-19,28 -45,42 -78,42 -14,0 -28,-3 -40,-8 -13,-6 -22,-13 -28,-21 -6,-8 -10,-19 -13,-31 -2,-8 -3,-21 -3,-39l0 -152 42 0 0 136c0,22 1,36 3,44 3,11 8,19 17,26 8,6 19,9 31,9 12,0 24,-3 35,-10 11,-6 19,-15 23,-26 4,-11 7,-27 7,-48l0 -131 42 0 0 245 -37 0z"/>
  <path id="5" class="fil1" d="M6879 2524l0 -338 67 0 80 239c7,22 13,39 16,50 4,-12 10,-30 18,-54l81 -235 60 0 0 338 -43 0 0 -283 -99 283 -40 0 -98 -288 0 288 -43 0z"/>
  <path id="6" class="fil1" d="M7428 2493c-15,13 -30,22 -45,28 -14,5 -30,8 -46,8 -27,0 -48,-7 -62,-20 -14,-13 -22,-30 -22,-50 0,-12 3,-23 8,-33 6,-10 13,-18 21,-24 9,-6 19,-11 30,-14 8,-2 21,-4 37,-6 34,-4 58,-9 74,-14 0,-6 0,-9 0,-11 0,-17 -4,-29 -12,-36 -11,-9 -26,-14 -47,-14 -20,0 -34,3 -43,10 -9,7 -16,19 -21,36l-41 -6c4,-17 10,-31 18,-42 9,-11 21,-19 37,-25 16,-6 35,-9 56,-9 21,0 38,2 51,7 13,5 23,11 29,19 6,7 10,17 13,28 1,7 2,20 2,38l0 55c0,38 1,63 3,73 2,10 5,20 10,30l-43 0c-4,-9 -7,-19 -8,-31zm-3 -92c-15,6 -38,11 -68,16 -17,2 -29,5 -36,8 -7,3 -13,8 -16,13 -4,6 -6,12 -6,20 0,11 4,20 13,27 8,7 21,11 37,11 16,0 30,-3 43,-10 12,-7 22,-16 27,-28 4,-9 7,-23 7,-41l0 -15z"/>
  <path id="7" class="fil1" d="M7621 2487l6 37c-12,2 -22,4 -31,4 -15,0 -27,-2 -35,-7 -8,-5 -14,-11 -17,-19 -3,-8 -5,-24 -5,-49l0 -141 -31 0 0 -32 31 0 0 -61 42 -25 0 86 42 0 0 32 -42 0 0 144c0,12 1,20 2,23 1,3 4,6 7,8 3,2 8,3 14,3 5,0 11,-1 18,-2z"/>
  <path id="8" class="fil1" d="M7662 2233l0 -47 42 0 0 47 -42 0zm0 291l0 -245 42 0 0 245 -42 0z"/>
 </g>
</svg>
