<?xml version="1.0" encoding="UTF-8"?>
<!DOCTYPE svg PUBLIC "-//W3C//DTD SVG 1.1//EN" "http://www.w3.org/Graphics/SVG/1.1/DTD/svg11.dtd">
<!-- Creator: CorelDRAW X6 -->
<svg xmlns="http://www.w3.org/2000/svg" xml:space="preserve" width="4.92126in" height="3.64173in" version="1.1" style="shape-rendering:geometricPrecision; text-rendering:geometricPrecision; image-rendering:optimizeQuality; fill-rule:evenodd; clip-rule:evenodd"
viewBox="0 0 4921 3642"
 xmlns:xlink="http://www.w3.org/1999/xlink">
 <defs>
  <style type="text/css">
   <![CDATA[
    .str0 {stroke:#373435;stroke-width:41.6654}
    .fil0 {fill:none}
    .fil2 {fill:#ED3237}
    .fil1 {fill:#373435;fill-rule:nonzero}
   ]]>
  </style>
 </defs>
 <g id="Layer_x0020_1">
  <metadata id="CorelCorpID_0Corel-Layer"/>
  <rect class="fil0 str0" x="10737" y="-944" width="3582" height="2369"/>
  <ellipse class="fil0 str0" cx="11445" cy="-280" rx="361" ry="376"/>
  <ellipse class="fil0 str0" cx="12453" cy="-276" rx="361" ry="376"/>
  <ellipse class="fil0 str0" cx="13484" cy="-276" rx="361" ry="376"/>
  <ellipse class="fil0 str0" cx="11445" cy="700" rx="361" ry="376"/>
  <ellipse class="fil0 str0" cx="12453" cy="704" rx="361" ry="376"/>
  <ellipse class="fil0 str0" cx="13484" cy="704" rx="361" ry="376"/>
  <path class="fil1" d="M11333 -161l92 -239 35 0 97 239 -36 0 -28 -72 -101 0 -26 72 -34 0zm69 -98l81 0 -25 -66c-8,-20 -13,-37 -17,-50 -3,16 -8,31 -13,46l-26 70z"/>
  <path class="fil1" d="M12366 -157l0 -239 90 0c18,0 33,2 44,7 11,5 20,12 26,22 6,10 9,21 9,32 0,10 -3,20 -8,29 -6,9 -14,16 -25,22 14,4 26,11 33,22 8,10 12,22 12,36 0,11 -2,22 -7,31 -5,10 -11,17 -18,22 -7,5 -16,9 -26,12 -11,3 -23,4 -39,4l-91 0zm32 -138l52 0c14,0 24,-1 30,-3 8,-2 14,-6 18,-12 4,-6 6,-13 6,-21 0,-8 -2,-15 -6,-21 -4,-6 -9,-10 -16,-12 -7,-2 -19,-3 -36,-3l-48 0 0 72zm0 110l59 0c10,0 17,0 22,-1 7,-1 13,-3 18,-7 5,-3 9,-8 12,-13 3,-6 5,-13 5,-20 0,-9 -2,-17 -7,-23 -5,-7 -11,-11 -19,-14 -8,-3 -20,-4 -35,-4l-55 0 0 82z"/>
  <path class="fil1" d="M13373 -157l92 -239 35 0 97 239 -36 0 -28 -72 -101 0 -26 72 -34 0zm69 -98l81 0 -25 -66c-8,-20 -13,-37 -17,-50 -3,16 -8,31 -13,46l-26 70z"/>
  <path class="fil1" d="M13397 824l0 -239 90 0c18,0 33,2 44,7 11,5 20,12 26,22 6,10 9,21 9,32 0,10 -3,20 -8,29 -6,9 -14,16 -25,22 14,4 26,11 33,22 8,10 12,22 12,36 0,11 -2,22 -7,31 -5,10 -11,17 -18,22 -7,5 -16,9 -26,12 -11,3 -23,4 -39,4l-91 0zm32 -138l52 0c14,0 24,-1 30,-3 8,-2 14,-6 18,-12 4,-6 6,-13 6,-21 0,-8 -2,-15 -6,-21 -4,-6 -9,-10 -16,-12 -7,-2 -19,-3 -36,-3l-48 0 0 72zm0 110l59 0c10,0 17,0 22,-1 7,-1 13,-3 18,-7 5,-3 9,-8 12,-13 3,-6 5,-13 5,-20 0,-9 -2,-17 -7,-23 -5,-7 -11,-11 -19,-14 -8,-3 -20,-4 -35,-4l-55 0 0 82z"/>
  <path class="fil1" d="M12341 824l92 -239 35 0 97 239 -36 0 -28 -72 -101 0 -26 72 -34 0zm69 -98l81 0 -25 -66c-8,-20 -13,-37 -17,-50 -3,16 -8,31 -13,46l-26 70z"/>
  <path class="fil1" d="M11358 820l0 -239 90 0c18,0 33,2 44,7 11,5 20,12 26,22 6,10 9,21 9,32 0,10 -3,20 -8,29 -6,9 -14,16 -25,22 14,4 26,11 33,22 8,10 12,22 12,36 0,11 -2,22 -7,31 -5,10 -11,17 -18,22 -7,5 -16,9 -26,12 -11,3 -23,4 -39,4l-91 0zm32 -138l52 0c14,0 24,-1 30,-3 8,-2 14,-6 18,-12 4,-6 6,-13 6,-21 0,-8 -2,-15 -6,-21 -4,-6 -9,-10 -16,-12 -7,-2 -19,-3 -36,-3l-48 0 0 72zm0 110l59 0c10,0 17,0 22,-1 7,-1 13,-3 18,-7 5,-3 9,-8 12,-13 3,-6 5,-13 5,-20 0,-9 -2,-17 -7,-23 -5,-7 -11,-11 -19,-14 -8,-3 -20,-4 -35,-4l-55 0 0 82z"/>
  <rect class="fil0 str0" x="585" y="620" width="3582" height="2369"/>
  <ellipse class="fil0 str0" cx="1293" cy="1284" rx="361" ry="376"/>
  <ellipse class="fil2 str0" cx="2301" cy="1288" rx="361" ry="376"/>
  <ellipse class="fil0 str0" cx="3332" cy="1288" rx="361" ry="376"/>
  <ellipse class="fil2 str0" cx="1293" cy="2265" rx="361" ry="376"/>
  <ellipse class="fil2 str0" cx="2301" cy="2269" rx="361" ry="376"/>
  <ellipse class="fil2 str0" cx="3332" cy="2269" rx="361" ry="376"/>
  <path class="fil1" d="M1181 1404l92 -239 35 0 97 239 -36 0 -28 -72 -101 0 -26 72 -34 0zm69 -98l81 0 -25 -66c-8,-20 -13,-37 -17,-50 -3,16 -8,31 -13,46l-26 70z"/>
  <path class="fil1" d="M3220 1408l92 -239 35 0 97 239 -36 0 -28 -72 -101 0 -26 72 -34 0zm69 -98l81 0 -25 -66c-8,-20 -13,-37 -17,-50 -3,16 -8,31 -13,46l-26 70z"/>
 </g>
</svg>
