<?xml version="1.0" encoding="UTF-8"?>
<!DOCTYPE svg PUBLIC "-//W3C//DTD SVG 1.1//EN" "http://www.w3.org/Graphics/SVG/1.1/DTD/svg11.dtd">
<!-- Creator: CorelDRAW X6 -->
<svg xmlns="http://www.w3.org/2000/svg" xml:space="preserve" width="8.26772in" height="5.90551in" version="1.1" style="shape-rendering:geometricPrecision; text-rendering:geometricPrecision; image-rendering:optimizeQuality; fill-rule:evenodd; clip-rule:evenodd"
viewBox="0 0 8268 5906"
 xmlns:xlink="http://www.w3.org/1999/xlink">
 <defs>
  <style type="text/css">
   <![CDATA[
    .str0 {stroke:#373435;stroke-width:55.5551}
    .fil1 {fill:none}
    .fil0 {fill:#373435;fill-rule:nonzero}
   ]]>
  </style>
 </defs>
 <g id="Layer_x0020_1">
  <metadata id="CorelCorpID_0Corel-Layer"/>
  <path class="fil0" d="M2910 1139l275 -716 104 0 292 716 -108 0 -83 -217 -302 0 -78 217 -101 0zm206 -294l244 0 -75 -199c-23,-60 -40,-110 -51,-150 -10,47 -23,93 -40,138l-79 210z"/>
  <path id="1" class="fil0" d="M4304 1055l0 84 -474 0c-1,-21 3,-42 10,-61 12,-32 32,-64 59,-95 27,-31 65,-67 115,-108 78,-64 130,-114 158,-152 28,-37 42,-73 42,-106 0,-35 -13,-64 -38,-88 -25,-24 -58,-36 -98,-36 -43,0 -77,13 -102,38 -26,25 -38,60 -39,105l-90 -9c6,-67 30,-119 70,-154 41,-35 95,-53 163,-53 69,0 123,19 163,57 40,38 60,86 60,142 0,29 -6,57 -18,85 -12,28 -31,57 -58,88 -27,31 -73,73 -136,126 -53,44 -87,74 -102,90 -15,16 -27,32 -37,48l352 0z"/>
  <path id="2" class="fil0" d="M4579 1139l275 -716 104 0 292 716 -108 0 -83 -217 -302 0 -78 217 -101 0zm206 -294l244 0 -75 -199c-23,-60 -40,-110 -51,-150 -10,47 -23,93 -40,138l-79 210z"/>
  <path id="3" class="fil0" d="M4277 2005l95 24c-20,78 -56,137 -107,178 -52,41 -115,61 -189,61 -77,0 -140,-16 -188,-47 -48,-31 -85,-77 -110,-136 -25,-60 -38,-124 -38,-192 0,-75 14,-140 43,-195 29,-56 69,-98 122,-127 53,-29 110,-43 173,-43 72,0 132,18 181,55 49,37 83,88 102,154l-93 22c-17,-52 -41,-90 -72,-114 -32,-24 -71,-36 -119,-36 -55,0 -101,13 -138,40 -37,26 -63,62 -78,106 -15,45 -23,90 -23,138 0,61 9,114 27,159 18,46 45,79 83,102 37,23 78,34 121,34 53,0 98,-15 134,-46 37,-31 62,-76 75,-136z"/>
  <path id="4" class="fil0" d="M4737 1633l0 -84 463 0 0 68c-46,49 -91,113 -136,194 -45,81 -79,163 -104,249 -18,60 -29,126 -34,197l-90 0c1,-56 12,-125 33,-204 21,-80 51,-157 91,-231 40,-74 82,-137 126,-188l-350 0z"/>
  <path id="5" class="fil0" d="M6086 2256l190 -269 -176 -250 108 0 82 123c15,23 27,42 36,56 15,-21 28,-40 40,-57l86 -122 108 0 -177 250 188 269 -107 0 -107 -160 -25 -39 -139 199 -108 0z"/>
  <line class="fil1 str0" x1="1114" y1="2394" x2="6689" y2= "2394" />
  <path class="fil0" d="M2139 3204l88 -12c10,50 27,86 51,108 24,22 54,33 89,33 42,0 77,-14 105,-43 28,-29 43,-64 43,-107 0,-40 -13,-74 -40,-100 -26,-26 -60,-39 -101,-39 -17,0 -37,3 -62,10l10 -77c6,1 11,1 14,1 38,0 71,-10 102,-29 30,-20 45,-50 45,-90 0,-32 -11,-59 -33,-80 -22,-21 -50,-32 -85,-32 -34,0 -63,11 -86,33 -23,22 -38,54 -44,98l-88 -16c11,-59 35,-105 73,-137 38,-33 86,-49 142,-49 39,0 75,8 108,25 33,17 58,40 76,68 18,29 26,60 26,92 0,31 -8,59 -25,84 -17,25 -41,46 -74,61 42,10 75,30 99,61 23,31 35,69 35,116 0,62 -23,116 -68,159 -46,44 -103,65 -173,65 -63,0 -115,-19 -157,-56 -42,-38 -65,-86 -71,-146z"/>
  <path id="1" class="fil0" d="M3004 3394l0 -716 269 0c55,0 99,7 132,22 33,15 59,37 78,67 19,30 28,62 28,95 0,31 -8,59 -25,86 -17,27 -42,49 -75,66 43,13 77,34 100,65 23,31 35,67 35,108 0,34 -7,65 -21,94 -14,29 -32,51 -53,67 -21,16 -47,27 -78,35 -32,8 -70,12 -116,12l-273 0zm95 -415l155 0c42,0 72,-3 90,-8 24,-7 42,-19 55,-36 12,-17 18,-38 18,-63 0,-24 -6,-45 -17,-63 -11,-18 -28,-31 -49,-37 -21,-7 -58,-10 -109,-10l-143 0 0 217zm0 331l178 0c31,0 52,-1 65,-4 22,-4 40,-10 55,-20 15,-9 27,-23 36,-40 10,-18 14,-38 14,-61 0,-27 -7,-50 -21,-70 -14,-20 -33,-34 -57,-42 -24,-8 -59,-12 -105,-12l-166 0 0 247z"/>
  <path id="2" class="fil0" d="M3923 2771l0 -84 463 0 0 68c-46,49 -91,113 -136,194 -45,81 -79,163 -104,249 -18,60 -29,126 -34,197l-90 0c1,-56 12,-125 33,-204 21,-80 51,-157 91,-231 40,-74 82,-137 126,-188l-350 0z"/>
  <path id="3" class="fil0" d="M4654 3394l275 -716 104 0 292 716 -108 0 -83 -217 -302 0 -78 217 -101 0zm206 -294l244 0 -75 -199c-23,-60 -40,-110 -51,-150 -10,47 -23,93 -40,138l-79 210z"/>
  <path class="fil0" d="M1733 4409l0 84 -474 0c-1,-21 3,-42 10,-61 12,-32 32,-64 59,-95 27,-31 65,-67 115,-108 78,-64 130,-114 158,-152 28,-37 42,-73 42,-106 0,-35 -13,-64 -38,-88 -25,-24 -58,-36 -98,-36 -43,0 -77,13 -102,38 -26,25 -38,60 -39,105l-90 -9c6,-67 30,-119 70,-154 41,-35 95,-53 163,-53 69,0 123,19 163,57 40,38 60,86 60,142 0,29 -6,57 -18,85 -12,28 -31,57 -58,88 -27,31 -73,73 -136,126 -53,44 -87,74 -102,90 -15,16 -27,32 -37,48l352 0z"/>
  <path id="1" class="fil0" d="M2141 4493l0 -716 247 0c56,0 98,3 128,10 41,10 76,27 105,51 38,32 66,73 85,122 19,50 28,107 28,170 0,54 -6,103 -19,145 -13,42 -29,77 -49,104 -20,28 -42,49 -65,65 -24,16 -52,28 -85,36 -34,8 -72,12 -115,12l-258 0zm95 -84l153 0c47,0 84,-4 111,-13 27,-9 48,-21 64,-37 22,-23 40,-53 52,-91 13,-38 19,-84 19,-138 0,-75 -12,-133 -37,-173 -25,-40 -54,-67 -90,-81 -25,-10 -66,-15 -123,-15l-150 0 0 548z"/>
  <path id="2" class="fil0" d="M3106 4139c0,-85 9,-153 26,-205 18,-52 43,-92 78,-120 34,-28 77,-42 129,-42 38,0 72,8 101,23 29,16 53,38 72,67 19,29 33,65 44,106 11,42 16,98 16,169 0,84 -9,152 -26,204 -17,52 -43,92 -77,120 -34,28 -78,42 -130,42 -69,0 -123,-25 -162,-74 -47,-60 -71,-157 -71,-292zm90 0c0,118 14,196 41,235 28,39 62,58 102,58 40,0 74,-20 102,-58 28,-39 41,-117 41,-235 0,-118 -14,-196 -41,-235 -27,-39 -62,-58 -103,-58 -40,0 -73,17 -97,51 -30,44 -45,124 -45,242z"/>
  <path id="3" class="fil0" d="M3940 4139c0,-85 9,-153 26,-205 18,-52 43,-92 78,-120 34,-28 77,-42 129,-42 38,0 72,8 101,23 29,16 53,38 72,67 19,29 33,65 44,106 11,42 16,98 16,169 0,84 -9,152 -26,204 -17,52 -43,92 -77,120 -34,28 -78,42 -130,42 -69,0 -123,-25 -162,-74 -47,-60 -71,-157 -71,-292zm90 0c0,118 14,196 41,235 28,39 62,58 102,58 40,0 74,-20 102,-58 28,-39 41,-117 41,-235 0,-118 -14,-196 -41,-235 -27,-39 -62,-58 -103,-58 -40,0 -73,17 -97,51 -30,44 -45,124 -45,242z"/>
  <polygon id="4" class="fil0" points="6372,4377 6372,4181 6177,4181 6177,4099 6372,4099 6372,3904 6455,3904 6455,4099 6650,4099 6650,4181 6455,4181 6455,4377 "/>
  <line class="fil1 str0" x1="1114" y1="4611" x2="6689" y2= "4611" />
  <path class="fil0" d="M1711 5539l0 84 -474 0c-1,-21 3,-42 10,-61 12,-32 32,-64 59,-95 27,-31 65,-67 115,-108 78,-64 130,-114 158,-152 28,-37 42,-73 42,-106 0,-35 -13,-64 -38,-88 -25,-24 -58,-36 -98,-36 -43,0 -77,13 -102,38 -26,25 -38,60 -39,105l-90 -9c6,-67 30,-119 70,-154 41,-35 95,-53 163,-53 69,0 123,19 163,57 40,38 60,86 60,142 0,29 -6,57 -18,85 -12,28 -31,57 -58,88 -27,31 -73,73 -136,126 -53,44 -87,74 -102,90 -15,16 -27,32 -37,48l352 0z"/>
  <path id="1" class="fil0" d="M2629 5372l95 24c-20,78 -56,137 -107,178 -52,41 -115,61 -189,61 -77,0 -140,-16 -188,-47 -48,-31 -85,-77 -110,-136 -25,-60 -38,-124 -38,-192 0,-75 14,-140 43,-195 29,-56 69,-98 122,-127 53,-29 110,-43 173,-43 72,0 132,18 181,55 49,37 83,88 102,154l-93 22c-17,-52 -41,-90 -72,-114 -32,-24 -71,-36 -119,-36 -55,0 -101,13 -138,40 -37,26 -63,62 -78,106 -15,45 -23,90 -23,138 0,61 9,114 27,159 18,46 45,79 83,102 37,23 78,34 121,34 53,0 98,-15 134,-46 37,-31 62,-76 75,-136z"/>
  <path id="2" class="fil0" d="M3115 5623l0 -716 269 0c55,0 99,7 132,22 33,15 59,37 78,67 19,30 28,62 28,95 0,31 -8,59 -25,86 -17,27 -42,49 -75,66 43,13 77,34 100,65 23,31 35,67 35,108 0,34 -7,65 -21,94 -14,29 -32,51 -53,67 -21,16 -47,27 -78,35 -32,8 -70,12 -116,12l-273 0zm95 -415l155 0c42,0 72,-3 90,-8 24,-7 42,-19 55,-36 12,-17 18,-38 18,-63 0,-24 -6,-45 -17,-63 -11,-18 -28,-31 -49,-37 -21,-7 -58,-10 -109,-10l-143 0 0 217zm0 331l178 0c31,0 52,-1 65,-4 22,-4 40,-10 55,-20 15,-9 27,-23 36,-40 10,-18 14,-38 14,-61 0,-27 -7,-50 -21,-70 -14,-20 -33,-34 -57,-42 -24,-8 -59,-12 -105,-12l-166 0 0 247z"/>
  <path id="3" class="fil0" d="M4034 5000l0 -84 463 0 0 68c-46,49 -91,113 -136,194 -45,81 -79,163 -104,249 -18,60 -29,126 -34,197l-90 0c1,-56 12,-125 33,-204 21,-80 51,-157 91,-231 40,-74 82,-137 126,-188l-350 0z"/>
  <path id="4" class="fil0" d="M4863 5435l92 -7c7,45 23,79 47,101 25,23 55,34 90,34 43,0 79,-16 108,-48 29,-32 44,-74 44,-127 0,-50 -14,-90 -42,-119 -28,-29 -65,-44 -111,-44 -29,0 -54,7 -77,20 -23,13 -40,30 -53,51l-83 -12 69 -368 355 0 0 84 -285 0 -38 193c43,-30 88,-45 135,-45 62,0 115,22 158,65 43,43 64,99 64,167 0,65 -19,121 -57,168 -46,58 -109,87 -188,87 -65,0 -118,-18 -159,-55 -41,-37 -65,-85 -71,-145z"/>
 </g>
</svg>
